<?xml version="1.0" encoding="utf-8"?>
<!-- Generator: Adobe Illustrator 24.2.0, SVG Export Plug-In . SVG Version: 6.00 Build 0)  -->
<svg version="1.1" id="Layer_1" xmlns="http://www.w3.org/2000/svg" xmlns:xlink="http://www.w3.org/1999/xlink" x="0px" y="0px"
	 viewBox="0 0 1024 1024" style="enable-background:new 0 0 1024 1024;" xml:space="preserve">
<style type="text/css">
	.st0{fill:#FFFFFF;}
	.st1{fill:#45CB85;}
</style>
<g>
	<polygon class="st0" points="527.24,325.35 631.56,325.35 521.92,455.34 512.91,466.02 463.94,524.13 478.26,466.59 495.41,397.58 
		496.76,392.27 392.43,392.27 502.08,262.29 560.04,193.55 559.27,196.59 	"/>
	<path class="st0" d="M876.87,364.84c0-98.82-39.31-188.46-103.12-254.16l-7.57-7.58C700.49,39.29,610.85,0,512.02,0
		C444.5,0,381.26,18.34,327,50.32c-107.65,63.43-179.88,180.54-179.88,314.52c0,0.9,0,1.81,0.02,2.7
		c0.56,78.41,25.95,150.9,68.63,210.16h-0.09L512.02,1024l301.91-454.33c0.59-0.84,1.17-1.72,1.75-2.58l3.16-4.83h-0.08
		C855.47,505.34,876.87,437.6,876.87,364.84z M512.02,608.71c-138.03,0-249.9-111.89-249.9-249.9
		c0-137.97,111.87-249.84,249.9-249.84c138,0,249.87,111.87,249.87,249.84C761.89,496.83,650.02,608.71,512.02,608.71z"/>
	<g>
		<path class="st1" d="M876.87,364.84c0-98.82-39.31-188.46-103.12-254.16l-7.57-7.58C700.49,39.29,610.85,0,512.02,0
			C444.5,0,381.26,18.34,327,50.32c-107.65,63.43-179.88,180.54-179.88,314.52c0,0.9,0,1.81,0.02,2.7
			c0.56,78.41,25.95,150.9,68.63,210.16h-0.09L512.02,1024l301.91-454.33c0.59-0.84,1.17-1.72,1.75-2.58l3.16-4.83h-0.08
			C855.47,505.34,876.87,437.6,876.87,364.84z M512.02,608.71c-138.03,0-249.9-111.89-249.9-249.9
			c0-137.97,111.87-249.84,249.9-249.84c138,0,249.87,111.87,249.87,249.84C761.89,496.83,650.02,608.71,512.02,608.71z"/>
		<polygon class="st1" points="631.56,325.35 521.92,455.34 512.91,466.02 463.94,524.13 478.26,466.59 495.41,397.58 
			496.76,392.27 392.43,392.27 502.08,262.29 560.04,193.55 559.27,196.59 527.24,325.35 		"/>
	</g>
</g>
</svg>
